<svg width="136" height="33" viewBox="0 0 136 33" fill="none" xmlns="http://www.w3.org/2000/svg">
<path d="M6.00559 6.18366V9.70407H12.8998V14.2653H6.00559V18.153H13.819V22.9592H0V1.37755H13.819V6.18366H6.00559Z" fill="#E2F1CF"/>
<path d="M27.5415 22.9592L22.7922 15.9183V22.9592H16.7866V0.306122H22.7922V12.5204L27.5415 5.78571H34.7421L27.9705 14.4183L34.8646 22.9592H27.5415Z" fill="#E2F1CF"/>
<path d="M35.6448 14.3571C35.6448 12.5816 35.9614 11.0306 36.5946 9.70407C37.2483 8.37754 38.1267 7.35713 39.2298 6.64285C40.3533 5.92856 41.5993 5.57142 42.9679 5.57142C44.1527 5.57142 45.1741 5.80611 46.032 6.2755C46.8899 6.74489 47.5538 7.37754 48.0237 8.17346V5.78571H54.0292V22.9592H48.0237V20.5714C47.5538 21.3673 46.8797 22 46.0014 22.4694C45.1434 22.9387 44.1323 23.1734 42.9679 23.1734C41.5993 23.1734 40.3533 22.8163 39.2298 22.102C38.1267 21.3877 37.2483 20.3673 36.5946 19.0408C35.9614 17.6939 35.6448 16.1326 35.6448 14.3571ZM48.0237 14.3571C48.0237 13.2551 47.7172 12.3877 47.1044 11.7551C46.512 11.1224 45.7767 10.8061 44.8983 10.8061C43.9995 10.8061 43.2539 11.1224 42.6615 11.7551C42.0691 12.3673 41.7729 13.2347 41.7729 14.3571C41.7729 15.4592 42.0691 16.3367 42.6615 16.9898C43.2539 17.6224 43.9995 17.9388 44.8983 17.9388C45.7767 17.9388 46.512 17.6224 47.1044 16.9898C47.7172 16.3571 48.0237 15.4796 48.0237 14.3571Z" fill="#E2F1CF"/>
<path d="M57.668 22.9592V0.695731H65.1976C66.9458 0.695731 68.3749 1.01098 69.4847 1.64149C70.6018 2.26475 71.4288 3.10905 71.9656 4.17439C72.5024 5.23973 72.7708 6.42827 72.7708 7.74002C72.7708 9.05176 72.5024 10.2439 71.9656 11.3165C71.4361 12.3891 70.6163 13.2443 69.5065 13.882C68.3966 14.5125 66.9749 14.8278 65.2411 14.8278H59.8442V12.4362H65.1541C66.351 12.4362 67.3122 12.2297 68.0376 11.8166C68.763 11.4035 69.2889 10.8454 69.6153 10.1425C69.949 9.43224 70.1158 8.63142 70.1158 7.74002C70.1158 6.84861 69.949 6.05142 69.6153 5.34844C69.2889 4.64546 68.7593 4.09467 68.0267 3.69608C67.294 3.29023 66.322 3.08731 65.1106 3.08731H60.3665V22.9592H57.668Z" fill="#C5E39F"/>
<path d="M76.7695 22.9592V6.26159H79.2504V8.78362H79.4245C79.7291 7.95743 80.2804 7.28707 81.0784 6.77251C81.8763 6.25796 82.7758 6.00069 83.7769 6.00069C83.9655 6.00069 84.2012 6.00431 84.4841 6.01156C84.767 6.01881 84.981 6.02968 85.1261 6.04417V8.65317C85.039 8.63142 84.8396 8.59881 84.5276 8.55533C84.223 8.5046 83.9002 8.47923 83.5592 8.47923C82.7468 8.47923 82.0214 8.64954 81.383 8.99016C80.752 9.32353 80.2514 9.78735 79.8815 10.3816C79.5188 10.9686 79.3374 11.639 79.3374 12.3927V22.9592H76.7695Z" fill="#C5E39F"/>
<path d="M88.17 22.9592V6.26159H90.738V22.9592H88.17ZM89.4758 3.47866C88.9752 3.47866 88.5436 3.30835 88.1809 2.96773C87.8255 2.62711 87.6478 2.21765 87.6478 1.73933C87.6478 1.26101 87.8255 0.851547 88.1809 0.510927C88.5436 0.170309 88.9752 0 89.4758 0C89.9763 0 90.4043 0.170309 90.7597 0.510927C91.1224 0.851547 91.3038 1.26101 91.3038 1.73933C91.3038 2.21765 91.1224 2.62711 90.7597 2.96773C90.4043 3.30835 89.9763 3.47866 89.4758 3.47866Z" fill="#C5E39F"/>
<path d="M95.4412 22.9592V6.26159H97.9221V8.87058H98.1397C98.4879 7.97918 99.0501 7.28707 99.8263 6.79426C100.602 6.2942 101.535 6.04417 102.623 6.04417C103.725 6.04417 104.643 6.2942 105.376 6.79426C106.115 7.28707 106.692 7.97918 107.106 8.87058H107.28C107.708 8.00816 108.35 7.3233 109.206 6.816C110.062 6.30145 111.088 6.04417 112.285 6.04417C113.779 6.04417 115.002 6.51162 115.952 7.44651C116.902 8.37415 117.377 9.81997 117.377 11.784V22.9592H114.809V11.784C114.809 10.5519 114.472 9.6714 113.797 9.14235C113.123 8.61331 112.328 8.34878 111.414 8.34878C110.239 8.34878 109.329 8.7039 108.683 9.41412C108.038 10.1171 107.715 11.0085 107.715 12.0883V22.9592H105.104V11.5231C105.104 10.5737 104.795 9.8091 104.179 9.22932C103.562 8.64229 102.768 8.34878 101.796 8.34878C101.128 8.34878 100.505 8.52634 99.9242 8.88145C99.3511 9.23657 98.8869 9.72938 98.5314 10.3599C98.1832 10.9831 98.0091 11.7042 98.0091 12.5232V22.9592H95.4412Z" fill="#C5E39F"/>
<path d="M129.08 23.307C127.469 23.307 126.08 22.9519 124.912 22.2417C123.752 21.5242 122.856 20.5241 122.225 19.2413C121.601 17.9513 121.289 16.4512 121.289 14.7408C121.289 13.0305 121.601 11.5231 122.225 10.2186C122.856 8.90682 123.734 7.88496 124.858 7.15299C125.99 6.41378 127.31 6.04417 128.819 6.04417C129.689 6.04417 130.549 6.18912 131.397 6.479C132.246 6.76889 133.019 7.23996 133.715 7.89221C134.411 8.53721 134.966 9.39238 135.38 10.4577C135.793 11.5231 136 12.8348 136 14.393V15.48H123.117V13.2624H133.389C133.389 12.3203 133.2 11.4796 132.823 10.7404C132.453 10.0011 131.923 9.41775 131.234 8.99016C130.552 8.56258 129.747 8.34878 128.819 8.34878C127.796 8.34878 126.911 8.60244 126.164 9.10974C125.424 9.6098 124.854 10.262 124.455 11.0665C124.056 11.8709 123.857 12.7333 123.857 13.6537V15.1322C123.857 16.3932 124.074 17.4621 124.51 18.3391C124.952 19.2087 125.565 19.8718 126.349 20.3284C127.132 20.7777 128.042 21.0024 129.08 21.0024C129.754 21.0024 130.364 20.9082 130.908 20.7198C131.459 20.5241 131.934 20.2342 132.333 19.8501C132.732 19.4588 133.04 18.9732 133.258 18.3934L135.739 19.0891C135.478 19.9298 135.039 20.669 134.422 21.3068C133.806 21.9373 133.044 22.4301 132.137 22.7852C131.231 23.1331 130.211 23.307 129.08 23.307Z" fill="#C5E39F"/>
<path d="M95.1567 29.1649V29.9439H92.8444V29.1649H95.1567ZM93.3736 32.904V28.8947C93.3736 28.6237 93.4265 28.3989 93.5322 28.2204C93.6395 28.0419 93.7859 27.908 93.9712 27.8188C94.1566 27.7295 94.3672 27.6849 94.603 27.6849C94.7623 27.6849 94.9079 27.6971 95.0396 27.7214C95.1729 27.7457 95.2721 27.7676 95.3372 27.7871L95.1518 28.5661C95.1111 28.5531 95.0607 28.5409 95.0006 28.5296C94.942 28.5182 94.8819 28.5125 94.8201 28.5125C94.6672 28.5125 94.5607 28.5482 94.5005 28.6197C94.4404 28.6894 94.4103 28.7876 94.4103 28.9142V32.904H93.3736Z" fill="#BFD1E7"/>
<path d="M97.3501 32.9771C96.9712 32.9771 96.6435 32.8967 96.3671 32.7361C96.0923 32.5738 95.8801 32.3482 95.7305 32.0593C95.5809 31.7688 95.5061 31.4321 95.5061 31.0491C95.5061 30.6628 95.5809 30.3253 95.7305 30.0364C95.8801 29.7459 96.0923 29.5203 96.3671 29.3597C96.6435 29.1974 96.9712 29.1162 97.3501 29.1162C97.729 29.1162 98.0558 29.1974 98.3306 29.3597C98.6071 29.5203 98.8201 29.7459 98.9697 30.0364C99.1193 30.3253 99.1941 30.6628 99.1941 31.0491C99.1941 31.4321 99.1193 31.7688 98.9697 32.0593C98.8201 32.3482 98.6071 32.5738 98.3306 32.7361C98.0558 32.8967 97.729 32.9771 97.3501 32.9771ZM97.355 32.1737C97.5273 32.1737 97.6713 32.1251 97.7867 32.0277C97.9022 31.9287 97.9892 31.794 98.0477 31.6236C98.1079 31.4532 98.1379 31.2593 98.1379 31.0418C98.1379 30.8243 98.1079 30.6304 98.0477 30.46C97.9892 30.2896 97.9022 30.1549 97.7867 30.0559C97.6713 29.9569 97.5273 29.9074 97.355 29.9074C97.181 29.9074 97.0346 29.9569 96.9159 30.0559C96.7988 30.1549 96.7102 30.2896 96.6501 30.46C96.5915 30.6304 96.5622 30.8243 96.5622 31.0418C96.5622 31.2593 96.5915 31.4532 96.6501 31.6236C96.7102 31.794 96.7988 31.9287 96.9159 32.0277C97.0346 32.1251 97.181 32.1737 97.355 32.1737Z" fill="#BFD1E7"/>
<path d="M99.8698 32.904V29.1649H100.877V29.8173H100.916C100.984 29.5853 101.099 29.41 101.26 29.2915C101.421 29.1714 101.606 29.1114 101.816 29.1114C101.868 29.1114 101.924 29.1146 101.985 29.1211C102.045 29.1276 102.098 29.1365 102.143 29.1479V30.0681C102.094 30.0535 102.027 30.0405 101.941 30.0291C101.854 30.0178 101.776 30.0121 101.704 30.0121C101.551 30.0121 101.415 30.0453 101.294 30.1119C101.176 30.1768 101.081 30.2677 101.011 30.3845C100.943 30.5014 100.909 30.6361 100.909 30.7886V32.904H99.8698Z" fill="#BFD1E7"/>
<path d="M103.965 32.904L104.927 28.1055H107.358C107.903 28.1055 108.318 28.2038 108.602 28.4003C108.886 28.5922 109.027 28.8687 109.027 29.2297C109.027 29.5268 108.945 29.7781 108.78 29.9838C108.615 30.1894 108.393 30.3471 108.114 30.4568C107.835 30.5619 107.521 30.6145 107.173 30.6145L107.365 30.2854C107.809 30.2854 108.162 30.3814 108.423 30.5733C108.684 30.7653 108.815 31.0349 108.815 31.3822C108.815 31.7295 108.716 32.0152 108.519 32.2391C108.327 32.463 108.064 32.6298 107.729 32.7395C107.4 32.8492 107.026 32.904 106.61 32.904H103.965ZM105.504 31.9238H106.685C106.923 31.9238 107.111 31.8758 107.248 31.7798C107.39 31.6838 107.461 31.5422 107.461 31.3548C107.461 31.2131 107.409 31.1103 107.303 31.0463C107.198 30.9823 107.063 30.9504 106.898 30.9504H105.586L105.772 30.0112H106.864C107.024 30.0112 107.159 29.9907 107.269 29.9495C107.384 29.9084 107.468 29.8467 107.523 29.7644C107.578 29.6822 107.606 29.5816 107.606 29.4628C107.606 29.3303 107.555 29.2343 107.455 29.1749C107.354 29.1155 107.214 29.0858 107.036 29.0858H106.074L105.504 31.9238Z" fill="#BFD1E7"/>
<path d="M109.244 32.904L110.206 28.1055H112.239C112.862 28.1055 113.343 28.2403 113.681 28.51C114.02 28.7796 114.19 29.1589 114.19 29.6479C114.19 30.0501 114.094 30.402 113.901 30.7036C113.709 31.0052 113.434 31.2383 113.077 31.4028C112.72 31.5673 112.298 31.6496 111.813 31.6496H110.254L110.975 31.0463L110.604 32.904H109.244ZM110.941 31.204L110.467 30.5802H111.875C112.173 30.5802 112.404 30.5093 112.569 30.3677C112.733 30.226 112.816 30.0249 112.816 29.7644C112.816 29.5634 112.75 29.4148 112.617 29.3189C112.484 29.2229 112.298 29.1749 112.06 29.1749H110.755L111.477 28.5305L110.941 31.204Z" fill="#BFD1E7"/>
<path d="M114.241 32.904L115.203 28.1055H116.309L117.635 31.3754H117.051L119.62 28.1055H120.78L119.833 32.904H118.576L119.146 29.9975L119.372 29.9907L117.47 32.431H116.872L115.835 29.9838L116.075 30.0044L115.492 32.904H114.241Z" fill="#BFD1E7"/>
<path d="M122.588 33C122.313 33 122.05 32.9771 121.798 32.9314C121.546 32.8903 121.317 32.8309 121.111 32.7532C120.905 32.671 120.728 32.5818 120.582 32.4859L121.118 31.4713C121.283 31.5719 121.452 31.6587 121.626 31.7318C121.805 31.8004 121.985 31.8529 122.169 31.8895C122.352 31.9261 122.535 31.9443 122.718 31.9443C122.892 31.9443 123.041 31.9283 123.165 31.8963C123.288 31.8598 123.382 31.8095 123.446 31.7455C123.51 31.6816 123.542 31.6061 123.542 31.5193C123.542 31.4233 123.499 31.3479 123.412 31.2931C123.329 31.2337 123.22 31.1834 123.082 31.1423C122.945 31.1012 122.791 31.06 122.622 31.0189C122.457 30.9732 122.29 30.9206 122.121 30.8612C121.956 30.7973 121.805 30.7196 121.667 30.6282C121.53 30.5322 121.418 30.4111 121.331 30.2649C121.248 30.1186 121.207 29.9381 121.207 29.7233C121.207 29.376 121.301 29.0744 121.489 28.8184C121.676 28.5625 121.942 28.3637 122.285 28.2221C122.633 28.0804 123.043 28.0096 123.515 28.0096C123.858 28.0096 124.179 28.0461 124.476 28.1192C124.774 28.1878 125.031 28.2883 125.246 28.4209L124.751 29.4285C124.563 29.3097 124.355 29.2206 124.126 29.1612C123.902 29.0972 123.671 29.0652 123.432 29.0652C123.249 29.0652 123.091 29.0858 122.959 29.1269C122.83 29.1681 122.732 29.2252 122.663 29.2983C122.599 29.3668 122.567 29.4445 122.567 29.5314C122.567 29.6228 122.608 29.6982 122.691 29.7576C122.773 29.817 122.883 29.8673 123.02 29.9084C123.162 29.9495 123.316 29.9929 123.481 30.0386C123.65 30.0798 123.817 30.13 123.982 30.1894C124.147 30.2443 124.3 30.3197 124.442 30.4157C124.584 30.5071 124.696 30.6236 124.779 30.7653C124.861 30.9069 124.902 31.0829 124.902 31.2931C124.902 31.6359 124.808 31.9352 124.621 32.1911C124.433 32.447 124.165 32.6458 123.817 32.7875C123.469 32.9292 123.059 33 122.588 33Z" fill="#BFD1E7"/>
<path d="M125.242 32.904L126.204 28.1055H128.237C128.86 28.1055 129.34 28.2403 129.679 28.51C130.018 28.7796 130.188 29.1589 130.188 29.6479C130.188 30.0501 130.091 30.402 129.899 30.7036C129.707 31.0052 129.432 31.2383 129.075 31.4028C128.718 31.5673 128.296 31.6496 127.811 31.6496H126.252L126.973 31.0463L126.602 32.904H125.242ZM126.939 31.204L126.465 30.5802H127.873C128.17 30.5802 128.402 30.5093 128.567 30.3677C128.731 30.226 128.814 30.0249 128.814 29.7644C128.814 29.5634 128.747 29.4148 128.615 29.3189C128.482 29.2229 128.296 29.1749 128.058 29.1749H126.753L127.474 28.5305L126.939 31.204Z" fill="#BFD1E7"/>
<path d="M134.409 28.1055H135.769L134.807 32.904H133.447L134.409 28.1055ZM131.599 32.904H130.239L131.201 28.1055H132.561L131.599 32.904ZM133.921 31.0326H131.881L132.108 29.9084H134.148L133.921 31.0326Z" fill="#BFD1E7"/>
</svg>
