<svg width="198" height="49" viewBox="0 0 198 49" fill="none" xmlns="http://www.w3.org/2000/svg">
<path d="M8.74343 9.02065V14.1562H18.7805V20.81H8.74343V26.4814H20.1188V33.4925H0V2.00955H20.1188V9.02065H8.74343Z" fill="url(#paint0_linear_244_32)"/>
<path d="M40.0972 33.4925L33.1827 23.2215V33.4925H24.4393V0.446567H33.1827V18.2646L40.0972 8.44012H50.5804L40.7217 21.0333L50.7588 33.4925H40.0972Z" fill="url(#paint1_linear_244_32)"/>
<path d="M51.8946 20.944C51.8946 18.3539 52.3556 16.0913 53.2775 14.1562C54.2292 12.2211 55.508 10.7325 57.1139 9.69051C58.7496 8.64852 60.5637 8.12752 62.5562 8.12752C64.2811 8.12752 65.7681 8.46989 67.0172 9.15462C68.2662 9.83936 69.2328 10.7623 69.9168 11.9233V8.44012H78.6602V33.4925H69.9168V30.0093C69.2328 31.1704 68.2514 32.0933 66.9726 32.778C65.7235 33.4628 64.2514 33.8051 62.5562 33.8051C60.5637 33.8051 58.7496 33.2841 57.1139 32.2421C55.508 31.2002 54.2292 29.7116 53.2775 27.7765C52.3556 25.8116 51.8946 23.5341 51.8946 20.944ZM69.9168 20.944C69.9168 19.3364 69.4707 18.0711 68.5785 17.1482C67.7161 16.2253 66.6454 15.7638 65.3666 15.7638C64.0581 15.7638 62.9726 16.2253 62.1102 17.1482C61.2477 18.0413 60.8165 19.3066 60.8165 20.944C60.8165 22.5516 61.2477 23.8318 62.1102 24.7845C62.9726 25.7074 64.0581 26.1688 65.3666 26.1688C66.6454 26.1688 67.7161 25.7074 68.5785 24.7845C69.4707 23.8616 69.9168 22.5814 69.9168 20.944Z" fill="url(#paint2_linear_244_32)"/>
<path d="M83.9578 33.4925V1.01492H94.9201C97.4653 1.01492 99.5458 1.47481 101.162 2.39459C102.788 3.30379 103.992 4.53545 104.773 6.08955C105.555 7.64366 105.946 9.37749 105.946 11.291C105.946 13.2046 105.555 14.9437 104.773 16.5084C104.002 18.0731 102.809 19.3206 101.193 20.2509C99.5775 21.1707 97.5075 21.6306 94.9834 21.6306H87.1261V18.1418H94.8567C96.5993 18.1418 97.9986 17.8405 99.0547 17.2379C100.111 16.6353 100.876 15.8212 101.352 14.7957C101.837 13.7596 102.08 12.5914 102.08 11.291C102.08 9.99067 101.837 8.82774 101.352 7.80224C100.876 6.77674 100.105 5.97326 99.0388 5.39179C97.9722 4.79975 96.557 4.50373 94.7934 4.50373H87.8865V33.4925H83.9578Z" fill="#8DC741"/>
<path d="M111.767 33.4925V9.13433H115.379V12.8134H115.633C116.076 11.6082 116.879 10.6303 118.041 9.87966C119.202 9.12904 120.512 8.75373 121.969 8.75373C122.244 8.75373 122.587 8.75902 122.999 8.76959C123.411 8.78016 123.722 8.79602 123.934 8.81716V12.6231C123.807 12.5914 123.516 12.5438 123.062 12.4804C122.619 12.4064 122.149 12.3694 121.652 12.3694C120.47 12.3694 119.414 12.6178 118.484 13.1147C117.565 13.6011 116.837 14.2777 116.298 15.1446C115.77 16.0009 115.506 16.9789 115.506 18.0784V33.4925H111.767Z" fill="#8DC741"/>
<path d="M128.365 33.4925V9.13433H132.104V33.4925H128.365ZM130.266 5.07463C129.537 5.07463 128.909 4.82618 128.381 4.32929C127.864 3.8324 127.605 3.23507 127.605 2.53731C127.605 1.83955 127.864 1.24223 128.381 0.745335C128.909 0.248445 129.537 0 130.266 0C130.995 0 131.618 0.248445 132.135 0.745335C132.664 1.24223 132.928 1.83955 132.928 2.53731C132.928 3.23507 132.664 3.8324 132.135 4.32929C131.618 4.82618 130.995 5.07463 130.266 5.07463Z" fill="#8DC741"/>
<path d="M138.951 33.4925V9.13433H142.563V12.9403H142.88C143.387 11.6399 144.205 10.6303 145.335 9.91138C146.465 9.1819 147.822 8.81716 149.407 8.81716C151.012 8.81716 152.348 9.1819 153.414 9.91138C154.492 10.6303 155.331 11.6399 155.933 12.9403H156.187C156.81 11.6822 157.744 10.6831 158.991 9.9431C160.237 9.19248 161.731 8.81716 163.474 8.81716C165.649 8.81716 167.429 9.49907 168.812 10.8629C170.196 12.2161 170.887 14.3252 170.887 17.1903V33.4925H167.149V17.1903C167.149 15.393 166.658 14.1085 165.676 13.3368C164.693 12.565 163.537 12.1791 162.206 12.1791C160.495 12.1791 159.17 12.6971 158.23 13.7332C157.29 14.7587 156.82 16.0591 156.82 17.6343V33.4925H153.018V16.8097C153.018 15.4248 152.57 14.3094 151.672 13.4636C150.774 12.6073 149.618 12.1791 148.203 12.1791C147.231 12.1791 146.323 12.4381 145.478 12.9562C144.644 13.4742 143.968 14.1931 143.45 15.1129C142.943 16.0221 142.69 17.074 142.69 18.2687V33.4925H138.951Z" fill="#8DC741"/>
<path d="M187.925 34C185.58 34 183.558 33.482 181.858 32.4459C180.168 31.3993 178.864 29.9403 177.945 28.069C177.037 26.1872 176.582 23.9988 176.582 21.5037C176.582 19.0087 177.037 16.8097 177.945 14.9067C178.864 12.9932 180.141 11.5025 181.778 10.4347C183.426 9.35634 185.348 8.81716 187.545 8.81716C188.812 8.81716 190.063 9.02861 191.299 9.45149C192.535 9.87438 193.659 10.5616 194.673 11.5131C195.687 12.454 196.495 13.7015 197.097 15.2556C197.699 16.8097 198 18.7233 198 20.9963V22.5821H179.244V19.347H194.198C194.198 17.9726 193.923 16.7463 193.374 15.6679C192.836 14.5896 192.065 13.7385 191.061 13.1147C190.069 12.491 188.896 12.1791 187.545 12.1791C186.056 12.1791 184.767 12.5491 183.679 13.2892C182.602 14.0187 181.773 14.9701 181.192 16.1437C180.611 17.3172 180.321 18.5752 180.321 19.9179V22.0746C180.321 23.9142 180.638 25.4736 181.271 26.7528C181.916 28.0215 182.808 28.9888 183.949 29.6549C185.089 30.3103 186.415 30.6381 187.925 30.6381C188.907 30.6381 189.794 30.5006 190.586 30.2257C191.389 29.9403 192.081 29.5174 192.661 28.9571C193.242 28.3862 193.691 27.6779 194.008 26.8321L197.62 27.847C197.24 29.0734 196.601 30.1517 195.703 31.0821C194.805 32.0019 193.696 32.7208 192.376 33.2388C191.056 33.7463 189.572 34 187.925 34Z" fill="#8DC741"/>
<path d="M138.537 42.5455V43.6818H135.17V42.5455H138.537ZM135.941 48V42.1513C135.941 41.7559 136.018 41.428 136.172 41.1676C136.328 40.9072 136.541 40.7119 136.811 40.5817C137.081 40.4515 137.388 40.3864 137.731 40.3864C137.963 40.3864 138.175 40.4041 138.366 40.4396C138.561 40.4751 138.705 40.5071 138.8 40.5355L138.53 41.6719C138.471 41.6529 138.397 41.6352 138.31 41.6186C138.224 41.602 138.137 41.5938 138.047 41.5938C137.824 41.5938 137.669 41.6458 137.582 41.75C137.494 41.8518 137.45 41.995 137.45 42.1797V48H135.941Z" fill="#01499F"/>
<path d="M141.73 48.1065C141.179 48.1065 140.702 47.9893 140.299 47.755C139.899 47.5182 139.59 47.1892 139.372 46.7678C139.155 46.344 139.046 45.8527 139.046 45.294C139.046 44.7306 139.155 44.2382 139.372 43.8168C139.59 43.393 139.899 43.0639 140.299 42.8295C140.702 42.5928 141.179 42.4744 141.73 42.4744C142.282 42.4744 142.758 42.5928 143.158 42.8295C143.56 43.0639 143.87 43.393 144.088 43.8168C144.306 44.2382 144.415 44.7306 144.415 45.294C144.415 45.8527 144.306 46.344 144.088 46.7678C143.87 47.1892 143.56 47.5182 143.158 47.755C142.758 47.9893 142.282 48.1065 141.73 48.1065ZM141.737 46.9347C141.988 46.9347 142.198 46.8636 142.366 46.7216C142.534 46.5772 142.661 46.3807 142.746 46.1321C142.834 45.8835 142.877 45.6006 142.877 45.2834C142.877 44.9661 142.834 44.6832 142.746 44.4347C142.661 44.1861 142.534 43.9896 142.366 43.8452C142.198 43.7008 141.988 43.6286 141.737 43.6286C141.484 43.6286 141.271 43.7008 141.098 43.8452C140.928 43.9896 140.799 44.1861 140.711 44.4347C140.626 44.6832 140.583 44.9661 140.583 45.2834C140.583 45.6006 140.626 45.8835 140.711 46.1321C140.799 46.3807 140.928 46.5772 141.098 46.7216C141.271 46.8636 141.484 46.9347 141.737 46.9347Z" fill="#01499F"/>
<path d="M145.399 48V42.5455H146.865V43.4972H146.922C147.021 43.1586 147.188 42.9029 147.423 42.7301C147.657 42.5549 147.927 42.4673 148.232 42.4673C148.308 42.4673 148.39 42.4721 148.477 42.4815C148.565 42.491 148.642 42.504 148.708 42.5206V43.8629C148.637 43.8416 148.539 43.8227 148.414 43.8061C148.288 43.7895 148.173 43.7812 148.069 43.7812C147.847 43.7812 147.648 43.8298 147.472 43.9268C147.3 44.0215 147.162 44.1541 147.061 44.3246C146.961 44.495 146.911 44.6915 146.911 44.9141V48H145.399Z" fill="#01499F"/>
<path d="M151.361 48L152.761 41H156.301C157.095 41 157.698 41.1433 158.111 41.43C158.525 41.71 158.731 42.1133 158.731 42.64C158.731 43.0733 158.611 43.44 158.371 43.74C158.131 44.04 157.808 44.27 157.401 44.43C156.995 44.5833 156.538 44.66 156.031 44.66L156.311 44.18C156.958 44.18 157.471 44.32 157.851 44.6C158.231 44.88 158.421 45.2733 158.421 45.78C158.421 46.2867 158.278 46.7033 157.991 47.03C157.711 47.3567 157.328 47.6 156.841 47.76C156.361 47.92 155.818 48 155.211 48H151.361ZM153.601 46.57H155.321C155.668 46.57 155.941 46.5 156.141 46.36C156.348 46.22 156.451 46.0133 156.451 45.74C156.451 45.5333 156.375 45.3833 156.221 45.29C156.068 45.1967 155.871 45.15 155.631 45.15H153.721L153.991 43.78H155.581C155.815 43.78 156.011 43.75 156.171 43.69C156.338 43.63 156.461 43.54 156.541 43.42C156.621 43.3 156.661 43.1533 156.661 42.98C156.661 42.7867 156.588 42.6467 156.441 42.56C156.295 42.4733 156.091 42.43 155.831 42.43H154.431L153.601 46.57Z" fill="#01499F"/>
<path d="M159.047 48L160.447 41H163.407C164.313 41 165.013 41.1967 165.507 41.59C166 41.9833 166.247 42.5367 166.247 43.25C166.247 43.8367 166.107 44.35 165.827 44.79C165.547 45.23 165.147 45.57 164.627 45.81C164.107 46.05 163.493 46.17 162.787 46.17H160.517L161.567 45.29L161.027 48H159.047ZM161.517 45.52L160.827 44.61H162.877C163.31 44.61 163.647 44.5067 163.887 44.3C164.127 44.0933 164.247 43.8 164.247 43.42C164.247 43.1267 164.15 42.91 163.957 42.77C163.763 42.63 163.493 42.56 163.147 42.56H161.247L162.297 41.62L161.517 45.52Z" fill="#01499F"/>
<path d="M166.322 48L167.722 41H169.332L171.262 45.77H170.412L174.152 41H175.842L174.462 48H172.632L173.462 43.76L173.792 43.75L171.022 47.31H170.152L168.642 43.74L168.992 43.77L168.142 48H166.322Z" fill="#01499F"/>
<path d="M178.473 48.14C178.073 48.14 177.69 48.1067 177.323 48.04C176.956 47.98 176.623 47.8933 176.323 47.78C176.023 47.66 175.766 47.53 175.553 47.39L176.333 45.91C176.573 46.0567 176.82 46.1833 177.073 46.29C177.333 46.39 177.596 46.4667 177.863 46.52C178.13 46.5733 178.396 46.6 178.663 46.6C178.916 46.6 179.133 46.5767 179.313 46.53C179.493 46.4767 179.63 46.4033 179.723 46.31C179.816 46.2167 179.863 46.1067 179.863 45.98C179.863 45.84 179.8 45.73 179.673 45.65C179.553 45.5633 179.393 45.49 179.193 45.43C178.993 45.37 178.77 45.31 178.523 45.25C178.283 45.1833 178.04 45.1067 177.793 45.02C177.553 44.9267 177.333 44.8133 177.133 44.68C176.933 44.54 176.77 44.3633 176.643 44.15C176.523 43.9367 176.463 43.6733 176.463 43.36C176.463 42.8533 176.6 42.4133 176.873 42.04C177.146 41.6667 177.533 41.3767 178.033 41.17C178.54 40.9633 179.136 40.86 179.823 40.86C180.323 40.86 180.79 40.9133 181.223 41.02C181.656 41.12 182.03 41.2667 182.343 41.46L181.623 42.93C181.35 42.7567 181.046 42.6267 180.713 42.54C180.386 42.4467 180.05 42.4 179.703 42.4C179.436 42.4 179.206 42.43 179.013 42.49C178.826 42.55 178.683 42.6333 178.583 42.74C178.49 42.84 178.443 42.9533 178.443 43.08C178.443 43.2133 178.503 43.3233 178.623 43.41C178.743 43.4967 178.903 43.57 179.103 43.63C179.31 43.69 179.533 43.7533 179.773 43.82C180.02 43.88 180.263 43.9533 180.503 44.04C180.743 44.12 180.966 44.23 181.173 44.37C181.38 44.5033 181.543 44.6733 181.663 44.88C181.783 45.0867 181.843 45.3433 181.843 45.65C181.843 46.15 181.706 46.5867 181.433 46.96C181.16 47.3333 180.77 47.6233 180.263 47.83C179.756 48.0367 179.16 48.14 178.473 48.14Z" fill="#01499F"/>
<path d="M182.338 48L183.738 41H186.698C187.604 41 188.304 41.1967 188.798 41.59C189.291 41.9833 189.538 42.5367 189.538 43.25C189.538 43.8367 189.398 44.35 189.118 44.79C188.838 45.23 188.438 45.57 187.918 45.81C187.398 46.05 186.784 46.17 186.078 46.17H183.808L184.858 45.29L184.318 48H182.338ZM184.808 45.52L184.118 44.61H186.168C186.601 44.61 186.938 44.5067 187.178 44.3C187.418 44.0933 187.538 43.8 187.538 43.42C187.538 43.1267 187.441 42.91 187.248 42.77C187.054 42.63 186.784 42.56 186.438 42.56H184.538L185.588 41.62L184.808 45.52Z" fill="#01499F"/>
<path d="M195.683 41H197.663L196.263 48H194.283L195.683 41ZM191.593 48H189.613L191.013 41H192.993L191.593 48ZM194.973 45.27H192.003L192.333 43.63H195.303L194.973 45.27Z" fill="#01499F"/>
<defs>
<linearGradient id="paint0_linear_244_32" x1="0" y1="0" x2="120.303" y2="123.702" gradientUnits="userSpaceOnUse">
<stop stop-color="#01499F"/>
<stop offset="1" stop-color="#1C73DB"/>
</linearGradient>
<linearGradient id="paint1_linear_244_32" x1="0" y1="0" x2="120.303" y2="123.702" gradientUnits="userSpaceOnUse">
<stop stop-color="#01499F"/>
<stop offset="1" stop-color="#1C73DB"/>
</linearGradient>
<linearGradient id="paint2_linear_244_32" x1="0" y1="0" x2="120.303" y2="123.702" gradientUnits="userSpaceOnUse">
<stop stop-color="#01499F"/>
<stop offset="1" stop-color="#1C73DB"/>
</linearGradient>
</defs>
</svg>
