<svg width="198" height="34" viewBox="0 0 198 34" fill="none" xmlns="http://www.w3.org/2000/svg">
<path d="M8.74343 9.02065V14.1562H18.7805V20.81H8.74343V26.4814H20.1188V33.4925H0V2.00955H20.1188V9.02065H8.74343Z" fill="url(#paint0_linear_197_598)"/>
<path d="M40.0972 33.4925L33.1827 23.2215V33.4925H24.4393V0.446567H33.1827V18.2646L40.0972 8.44012H50.5804L40.7217 21.0333L50.7588 33.4925H40.0972Z" fill="url(#paint1_linear_197_598)"/>
<path d="M51.8946 20.944C51.8946 18.3539 52.3556 16.0913 53.2775 14.1562C54.2292 12.2211 55.508 10.7325 57.1139 9.69051C58.7496 8.64852 60.5637 8.12752 62.5562 8.12752C64.2811 8.12752 65.7681 8.46989 67.0172 9.15462C68.2662 9.83936 69.2328 10.7623 69.9168 11.9233V8.44012H78.6602V33.4925H69.9168V30.0093C69.2328 31.1704 68.2514 32.0933 66.9726 32.778C65.7235 33.4628 64.2514 33.8051 62.5562 33.8051C60.5637 33.8051 58.7496 33.2841 57.1139 32.2421C55.508 31.2002 54.2292 29.7116 53.2775 27.7765C52.3556 25.8116 51.8946 23.5341 51.8946 20.944ZM69.9168 20.944C69.9168 19.3364 69.4707 18.0711 68.5785 17.1482C67.7161 16.2253 66.6454 15.7638 65.3666 15.7638C64.0581 15.7638 62.9726 16.2253 62.1102 17.1482C61.2477 18.0413 60.8165 19.3066 60.8165 20.944C60.8165 22.5516 61.2477 23.8318 62.1102 24.7845C62.9726 25.7074 64.0581 26.1688 65.3666 26.1688C66.6454 26.1688 67.7161 25.7074 68.5785 24.7845C69.4707 23.8616 69.9168 22.5814 69.9168 20.944Z" fill="url(#paint2_linear_197_598)"/>
<path d="M83.9578 33.4925V1.01492H94.9201C97.4653 1.01492 99.5458 1.47481 101.162 2.39459C102.788 3.30379 103.992 4.53545 104.773 6.08955C105.555 7.64366 105.946 9.37749 105.946 11.291C105.946 13.2046 105.555 14.9437 104.773 16.5084C104.002 18.0731 102.809 19.3206 101.193 20.2509C99.5775 21.1707 97.5075 21.6306 94.9834 21.6306H87.1261V18.1418H94.8567C96.5993 18.1418 97.9986 17.8405 99.0547 17.2379C100.111 16.6353 100.876 15.8212 101.352 14.7957C101.837 13.7596 102.08 12.5914 102.08 11.291C102.08 9.99067 101.837 8.82774 101.352 7.80224C100.876 6.77674 100.105 5.97326 99.0388 5.39179C97.9722 4.79975 96.557 4.50373 94.7934 4.50373H87.8865V33.4925H83.9578Z" fill="#8DC741"/>
<path d="M111.767 33.4925V9.13433H115.379V12.8134H115.633C116.076 11.6082 116.879 10.6303 118.041 9.87966C119.202 9.12904 120.512 8.75373 121.969 8.75373C122.244 8.75373 122.587 8.75902 122.999 8.76959C123.411 8.78016 123.722 8.79602 123.934 8.81716V12.6231C123.807 12.5914 123.516 12.5438 123.062 12.4804C122.619 12.4064 122.149 12.3694 121.652 12.3694C120.47 12.3694 119.414 12.6178 118.484 13.1147C117.565 13.6011 116.837 14.2777 116.298 15.1446C115.77 16.0009 115.506 16.9789 115.506 18.0784V33.4925H111.767Z" fill="#8DC741"/>
<path d="M128.365 33.4925V9.13433H132.104V33.4925H128.365ZM130.266 5.07463C129.537 5.07463 128.909 4.82618 128.381 4.32929C127.864 3.8324 127.605 3.23507 127.605 2.53731C127.605 1.83955 127.864 1.24223 128.381 0.745335C128.909 0.248445 129.537 0 130.266 0C130.995 0 131.618 0.248445 132.135 0.745335C132.664 1.24223 132.928 1.83955 132.928 2.53731C132.928 3.23507 132.664 3.8324 132.135 4.32929C131.618 4.82618 130.995 5.07463 130.266 5.07463Z" fill="#8DC741"/>
<path d="M138.951 33.4925V9.13433H142.563V12.9403H142.88C143.387 11.6399 144.205 10.6303 145.335 9.91138C146.465 9.1819 147.822 8.81716 149.407 8.81716C151.012 8.81716 152.348 9.1819 153.414 9.91138C154.492 10.6303 155.331 11.6399 155.933 12.9403H156.187C156.81 11.6822 157.744 10.6831 158.991 9.9431C160.237 9.19248 161.731 8.81716 163.474 8.81716C165.649 8.81716 167.429 9.49907 168.812 10.8629C170.196 12.2161 170.887 14.3252 170.887 17.1903V33.4925H167.149V17.1903C167.149 15.393 166.658 14.1085 165.676 13.3368C164.693 12.565 163.537 12.1791 162.206 12.1791C160.495 12.1791 159.17 12.6971 158.23 13.7332C157.29 14.7587 156.82 16.0591 156.82 17.6343V33.4925H153.018V16.8097C153.018 15.4248 152.57 14.3094 151.672 13.4636C150.774 12.6073 149.618 12.1791 148.203 12.1791C147.231 12.1791 146.323 12.4381 145.478 12.9562C144.644 13.4742 143.968 14.1931 143.45 15.1129C142.943 16.0221 142.69 17.074 142.69 18.2687V33.4925H138.951Z" fill="#8DC741"/>
<path d="M187.925 34C185.58 34 183.558 33.482 181.858 32.4459C180.168 31.3993 178.864 29.9403 177.945 28.069C177.037 26.1872 176.582 23.9988 176.582 21.5037C176.582 19.0087 177.037 16.8097 177.945 14.9067C178.864 12.9932 180.141 11.5025 181.778 10.4347C183.426 9.35634 185.348 8.81716 187.545 8.81716C188.812 8.81716 190.063 9.02861 191.299 9.45149C192.535 9.87438 193.659 10.5616 194.673 11.5131C195.687 12.454 196.495 13.7015 197.097 15.2556C197.699 16.8097 198 18.7233 198 20.9963V22.5821H179.244V19.347H194.198C194.198 17.9726 193.923 16.7463 193.374 15.6679C192.836 14.5896 192.065 13.7385 191.061 13.1147C190.069 12.491 188.896 12.1791 187.545 12.1791C186.056 12.1791 184.767 12.5491 183.679 13.2892C182.602 14.0187 181.773 14.9701 181.192 16.1437C180.611 17.3172 180.321 18.5752 180.321 19.9179V22.0746C180.321 23.9142 180.638 25.4736 181.271 26.7528C181.916 28.0215 182.808 28.9888 183.949 29.6549C185.089 30.3103 186.415 30.6381 187.925 30.6381C188.907 30.6381 189.794 30.5006 190.586 30.2257C191.389 29.9403 192.081 29.5174 192.661 28.9571C193.242 28.3862 193.691 27.6779 194.008 26.8321L197.62 27.847C197.24 29.0734 196.601 30.1517 195.703 31.0821C194.805 32.0019 193.696 32.7208 192.376 33.2388C191.056 33.7463 189.572 34 187.925 34Z" fill="#8DC741"/>
<defs>
<linearGradient id="paint0_linear_197_598" x1="0" y1="0" x2="79.3373" y2="115.506" gradientUnits="userSpaceOnUse">
<stop stop-color="#01499F"/>
<stop offset="1" stop-color="#1C73DB"/>
</linearGradient>
<linearGradient id="paint1_linear_197_598" x1="0" y1="0" x2="79.3373" y2="115.506" gradientUnits="userSpaceOnUse">
<stop stop-color="#01499F"/>
<stop offset="1" stop-color="#1C73DB"/>
</linearGradient>
<linearGradient id="paint2_linear_197_598" x1="0" y1="0" x2="79.3373" y2="115.506" gradientUnits="userSpaceOnUse">
<stop stop-color="#01499F"/>
<stop offset="1" stop-color="#1C73DB"/>
</linearGradient>
</defs>
</svg>
